<?xml version="1.0" encoding="utf-8"?>
<!-- Generator: Adobe Illustrator 23.0.3, SVG Export Plug-In . SVG Version: 6.00 Build 0)  -->
<svg version="1.1" id="Layer_1" xmlns="http://www.w3.org/2000/svg" xmlns:xlink="http://www.w3.org/1999/xlink" x="0px" y="0px"
	 width="148px" height="60px" viewBox="0 0 148 60" style="enable-background:new 0 0 148 60;" xml:space="preserve">
<g>
	<path d="M0,46.9h25.1v-7.9H8.8V13.1H0V46.9z"/>
	<path d="M47.3,47.5c10.3,0,18-7.8,18-17.5v-0.1c0-9.7-7.6-17.4-17.9-17.4s-18,7.8-18,17.5v0.1C29.4,39.8,37,47.5,47.3,47.5z
		 M47.4,39.4c-5.3,0-8.8-4.4-8.8-9.4v-0.1c0-5,3.5-9.3,8.7-9.3c5.3,0,8.8,4.4,8.8,9.4v0.1C56.1,35.1,52.7,39.4,47.4,39.4z"/>
	<path d="M90.3,47.5c6.1,0,10.9-2.3,14.4-5.2v-15H89.6V34h6.7v4.2c-1.5,1-3.3,1.5-5.7,1.5c-5.4,0-9.2-4-9.2-9.6V30
		c0-5.3,3.8-9.5,8.7-9.5c3.4,0,5.8,1.2,8.2,3.2l5.3-6.4c-3.5-3.1-7.6-4.8-13.4-4.8c-10.3,0-17.9,7.7-17.9,17.5v0.1
		C72.3,40.3,79.9,47.5,90.3,47.5z"/>
	<path d="M130,47.5c10.3,0,18-7.8,18-17.5v-0.1c0-9.7-7.6-17.4-17.9-17.4s-18,7.8-18,17.5v0.1C112.2,39.8,119.7,47.5,130,47.5z
		 M130.1,39.4c-5.3,0-8.8-4.4-8.8-9.4v-0.1c0-5,3.5-9.3,8.7-9.3c5.3,0,8.8,4.4,8.8,9.4v0.1C138.9,35.1,135.4,39.4,130.1,39.4z"/>
</g>
</svg>
