<svg xmlns="http://www.w3.org/2000/svg">
  <symbol id="sp-store-unavailable" viewBox="0 0 72 72">
    <path fill-rule="evenodd" clip-rule="evenodd" d="M43.5 57c-3.041 0-5.5 2.459-5.5 5.5s2.459 5.5 5.5 5.5 5.5-2.459 5.5-5.5-2.459-5.5-5.5-5.5m0 9c-1.936 0-3.5-1.564-3.5-3.5s1.564-3.5 3.5-3.5 3.5 1.564 3.5 3.5-1.564 3.5-3.5 3.5m-18-9c-3.041 0-5.5 2.459-5.5 5.5s2.459 5.5 5.5 5.5 5.5-2.459 5.5-5.5-2.459-5.5-5.5-5.5m0 9c-1.936 0-3.5-1.564-3.5-3.5s1.564-3.5 3.5-3.5 3.5 1.564 3.5 3.5-1.564 3.5-3.5 3.5M21 25h26v2H21zm2 6h22v2H23zm2 6h18v2H25z"/>
    <path fill-rule="evenodd" clip-rule="evenodd" d="M56 4c-6.627 0-12 5.373-12 12 0 .683.09 1.348.2 2H11.527L9.2 12H4v2h3.8L20 45l-4 9h37v-2H19l2.7-6h26.1l7.8-18c.144.005.255 0 .4 0 6.627 0 12-5.373 12-12S62.627 4 56 4m-9.5 40H21.7l-9.4-24h32.4a11.98 11.98 0 0 0 8.8 7.7zm15.2-23.7-1.4 1.4-4.3-4.3-4.3 4.3-1.4-1.4-.007-.007L54.6 16l-4.3-4.293.003-.003L51.7 10.3l4.3 4.3 4.3-4.3 1.4 1.4-4.3 4.3z"/>
  </symbol>
  <symbol id="sp-added-status" viewBox="0 0 26 26">
    <path d="m5 12 5.02 4.9L21.15 4c.65-.66 1.71-.66 2.36 0 .65.67.65 1.74 0 2.4l-12.3 14.1c-.33.33-.76.5-1.18.5-.43 0-.86-.17-1.18-.5l-6.21-6.1c-.65-.66-.65-1.74 0-2.41.65-.65 1.71-.65 2.36.01"/>
  </symbol>
  <symbol id="sp-divider-dash" viewBox="0 0 100 8">
    <path d="M0 0h100v8H0z"/>
  </symbol>
  <symbol id="sp-divider-dots-100" viewBox="0 0 72 4">
    <circle cx="2" cy="2" r="2"/>
    <circle cx="36" cy="2" r="2"/>
    <circle cx="70" cy="2" r="2"/>
  </symbol>
  <symbol id="sp-divider-dots-25" viewBox="0 0 20 4">
    <circle cx="2" cy="2" r="2"/>
    <circle cx="18" cy="2" r="2"/>
  </symbol>
  <symbol id="sp-divider-dots-50" viewBox="0 0 36 4">
    <circle cx="2" cy="2" r="2"/>
    <circle cx="18" cy="2" r="2"/>
    <circle cx="34" cy="2" r="2"/>
  </symbol>
  <symbol id="sp-divider-dots-75" viewBox="0 0 54 4">
    <circle cx="2" cy="2" r="2"/>
    <circle cx="27" cy="2" r="2"/>
    <circle cx="52" cy="2" r="2"/>
  </symbol>
  <symbol id="sp-divider-dashed" viewBox="0 0 5120 1">
    <path stroke="currentColor" stroke-dasharray="5 5" d="M0 .5h5120"/>
  </symbol>
  <symbol id="sp-divider-dotted" viewBox="0 0 5120 1">
    <path stroke="currentColor" stroke-dasharray="1 3" d="M0 .5h5120"/>
  </symbol>
  <symbol id="sp-divider-slants" viewBox="0 0 97 5">
    <path d="M94.9 0 90 5h2.1L97 0zm-6 0L84 5h2.1L91 0zm-6 0L78 5h2.1L85 0zm-6 0L72 5h2.1L79 0zm-6 0L66 5h2.1L73 0zm-6 0L60 5h2.1L67 0zm-6 0L54 5h2.1L61 0zm-6 0L48 5h2.1L55 0zm-6 0L42 5h2.1L49 0zm-6 0L36 5h2.1L43 0zm-6 0L30 5h2.1L37 0zm-6 0L24 5h2.1L31 0zm-6 0L18 5h2.1L25 0zm-6 0L12 5h2.1L19 0zm-6 0L6 5h2.1L13 0zm-6 0L0 5h2.1L7 0z"/>
  </symbol>
  <symbol id="sp-divider-solid" viewBox="0 0 5120 1">
    <path d="M0 0h5120v1H0z"/>
  </symbol>
  <symbol id="sp-divider-waves" viewBox="0 0 112 4">
    <path d="M108 1.4c-.9.6-1.5 1.1-3 1.1s-2.2-.5-3-1.1c-.9-.6-2-1.4-4-1.4s-3.1.8-4 1.4-1.5 1.1-3 1.1-2.2-.5-3-1.1C87.1.8 86 0 84 0s-3.1.8-4 1.4-1.5 1.1-3 1.1-2.2-.5-3-1.1C73.1.8 72 0 70 0s-3.1.8-4 1.4-1.5 1.1-3 1.1-2.2-.5-3-1.1C59.1.8 58 0 56 0s-3.1.8-4 1.4-1.5 1.1-3 1.1-2.2-.5-3-1.1C45.1.8 44 0 42 0s-3.1.8-4 1.4-1.5 1.1-3 1.1-2.2-.5-3-1.1C31.1.8 30 0 28 0s-3.1.8-4 1.4-1.5 1.1-3 1.1-2.2-.5-3-1.1C17.1.8 16 0 14 0s-3.1.8-4 1.4-1.5 1.1-3 1.1S4.9 2 4 1.4 2 0 0 0v1.5c1.5 0 2.1.5 3 1.1S5 4 7 4s3.1-.8 4-1.4 1.5-1.1 3-1.1 2.2.5 3 1.1c.9.6 2 1.4 4 1.4s3.1-.8 4-1.4 1.5-1.1 3-1.1 2.2.5 3 1.1c.9.6 2 1.4 4 1.4s3.1-.8 4-1.4 1.5-1.1 3-1.1 2.2.5 3 1.1c.9.6 2 1.4 4 1.4s3.1-.8 4-1.4 1.5-1.1 3-1.1 2.2.5 3 1.1c.9.6 2 1.4 4 1.4s3.1-.8 4-1.4 1.5-1.1 3-1.1 2.2.5 3 1.1c.9.6 2 1.4 4 1.4s3.1-.8 4-1.4 1.5-1.1 3-1.1 2.2.5 3 1.1c.9.6 2 1.4 4 1.4s3.1-.8 4-1.4 1.5-1.1 3-1.1 2.2.5 3 1.1c.9.6 2 1.4 4 1.4s3.1-.8 4-1.4 1.5-1.1 3-1.1V0c-2 0-3.1.7-4 1.4"/>
  </symbol>
  <symbol id="sp-divider-zigzag" viewBox="0 0 112 12">
    <path d="m98 5-7 5.3L84 5l-7 5.3L70 5l-7 5.3L56 5l-7 5.3L42 5l-7 5.3L28 5l-7 5.3L14 5l-7 5.3L0 5v1.7L7 12l7-5.3 7 5.3 7-5.3 7 5.3 7-5.3 7 5.3 7-5.3 7 5.3 7-5.3 7 5.3 7-5.3 7 5.3 7-5.3 7 5.3 7-5.3V5l-7 5.3z"/>
    <path d="M105 5.3 98 0l-7 5.3L84 0l-7 5.3L70 0l-7 5.3L56 0l-7 5.3L42 0l-7 5.3L28 0l-7 5.3L14 0 7 5.3 0 0v1.7L7 7l7-5.3L21 7l7-5.3L35 7l7-5.3L49 7l7-5.3L63 7l7-5.3L77 7l7-5.3L91 7l7-5.3 7 5.3 7-5.3V0z"/>
  </symbol>
  <symbol id="sp-fm-error-cloud" viewBox="0 0 120 120" >
    <path d="M28.8 105.7C7.4 93.7-3.8 69.1 1.2 45l12.2 12.2c1 1 2.5 1.3 3.8.8l7.8-3.1 5.7 1.1 4.7 17.3c.3 1.1 1.2 2 2.3 2.4l7.7 2.6-2.8 15.2zm80.8-30c-7.4-2.7-15.6-1.9-22.4 2.1l-6.3 3.1-6.2-2.1L77.5 66c.2-.9 0-1.9-.5-2.7l-5.1-7.6 7.7-5.1c1.6-1.1 2.1-3.3 1-4.9l-6.3-9.5 1.3-9.2 8.9-4.5c.8-.4 1.5-1.2 1.8-2l3.3-9.8c20.4 14.8 28.5 41.3 20 65m-28.4 24.9c0-10.7 8.7-19.4 19.4-19.4s19.4 8.7 19.4 19.4-8.7 19.4-19.4 19.4-19.4-8.7-19.4-19.4m14.4 0-3.3 3.3c-.7.7-.7 1.8 0 2.5l2.5 2.5c.7.7 1.8.7 2.5 0l3.3-3.3 3.3 3.3c.7.7 1.8.7 2.5 0l2.5-2.5c.7-.7.7-1.8 0-2.5l-3.2-3.3 3.3-3.3c.7-.7.7-1.8 0-2.5l-2.5-2.5c-.7-.7-1.8-.7-2.5 0l-3.3 3.3-3.3-3.3c-.7-.7-1.8-.7-2.5 0l-2.5 2.5c-.7.7-.7 1.8 0 2.5zM77.7 87.3c-3.9 6.8-4.6 14.9-2 22.3-12.9 4.7-27.1 4.5-39.9-.6l12.5-11.1c.6-.5 1-1.2 1.1-2l3.5-19.4c.3-1.7-.7-3.4-2.4-4l-8.8-3L36.9 52c-.4-1.3-1.4-2.3-2.7-2.5l-8.8-1.8c-.7-.1-1.4-.1-2 .2l-6.7 2.7L3.4 37.2C14.1 7.9 46.5-7.3 75.8 3.4c2.6.9 5.1 2.1 7.6 3.4L80 16.9l-9.3 4.6c-1 .5-1.7 1.5-1.9 2.7L67 36.5c-.1.9.1 1.7.6 2.5l5.1 7.7-7.7 5.1c-1.6 1.1-2.1 3.3-1 4.9l6.2 9.3L67 80.4c-.4 1.8.6 3.5 2.3 4.1z"/>
  </symbol>
  <symbol id="sp-product-no-photo" viewBox="0 0 138 115" >
    <path d="M122.667 20.444H101.66l-2.124-8.474C96.628 3.246 92.506 0 84.333 0H53.667C45.494 0 41.372 3.246 38.41 12.157l-2.073 8.288H15.333C6.877 20.444 0 27.321 0 35.778v63.889C0 108.123 6.877 115 15.333 115h107.333c8.456 0 15.333-6.877 15.333-15.333V35.778c.001-8.457-6.876-15.334-15.332-15.334m10.222 79.223c0 5.638-4.585 10.222-10.222 10.222H15.333c-5.638 0-10.222-4.585-10.222-10.222V35.778c0-5.638 4.585-10.222 10.222-10.222h23a2.554 2.554 0 0 0 2.479-1.935l2.502-10.036c2.216-6.652 4.442-8.474 10.353-8.474h30.667c5.911 0 8.137 1.822 10.299 8.288l2.556 10.222a2.555 2.555 0 0 0 2.479 1.935h23c5.638 0 10.222 4.585 10.222 10.222v63.889z"/>
    <path d="M69 31c-18.196 0-33 14.804-33 33s14.804 33 33 33 33-14.804 33-33-14.804-33-33-33m0 5.077c6.8 0 13.037 2.446 17.886 6.502L47.578 81.886C43.523 77.037 41.077 70.8 41.077 64c0-15.396 12.527-27.923 27.923-27.923m0 55.846c-6.8 0-13.038-2.446-17.886-6.502l39.307-39.307A27.8 27.8 0 0 1 96.923 64c0 15.396-12.527 27.923-27.923 27.923"/>
  </symbol>
  <symbol id="sp-cross-18" viewBox="0 0 18 18">
    <path fill-rule="evenodd" clip-rule="evenodd" d="M7.6 9 0 1.4 1.4 0 9 7.6 16.6 0 18 1.4 10.4 9l7.6 7.6-1.4 1.4L9 10.4 1.4 18 0 16.6z"/>
  </symbol>
  <symbol id="sp-play-youtube" viewBox="0 0 68 48">
    <path d="M.66 37.62s.66 4.7 2.7 6.77c2.58 2.71 5.98 2.63 7.49 2.91 5.43.52 23.1.68 23.12.68 0 0 14.29-.02 23.81-.71 1.32-.15 4.22-.17 6.81-2.89 2.03-2.07 2.7-6.77 2.7-6.77s.67-5.52.67-11.04V21.4c0-5.52-.67-11.04-.67-11.04s-.66-4.7-2.7-6.77C62.03.86 59.13.84 57.8.69 48.28 0 34 0 34 0c-.03 0-14.31 0-23.82.69-1.33.15-4.23.17-6.82 2.89-2.04 2.07-2.7 6.77-2.7 6.77S.11 14.85 0 19.8v8.36c.1 4.94.66 9.45.66 9.45z"/>
    <path d="m26.96 13.67 18.37 9.62-18.37 9.55z" fill="#fff"/>
    <path d="m45.02 23.46.3-.18-18.36-9.61 16.36 10.67z" fill="#ccc"/>
  </symbol>
  <symbol id="sp-play-vimeo" viewBox="0 0 20 20">
    <path d="m1 0 19 10L1 20z"/>
  </symbol>
  <symbol id="sp-play-dailymotion" viewBox="0 0 81 81">
    <circle cx="40.705" cy="40.705" r="40.078" fill="currentColor" fill-opacity=".4"/>
    <path d="M55.42 40.705 33.504 55.734V25.675z"/>
  </symbol>
  <symbol id="sp-arrow-next" viewBox="0 0 14 29">
    <path d="M2.8 0 0 2.8l9 11.7-9 11.7L2.8 29 14 14.5z"/>
  </symbol>
  <symbol id="sp-arrow-readmore" viewBox="0 0 100 100">
    <path d="m72.707 49.773-5.255-5.258-.302-.369-24.869-24.869a7.78 7.78 0 0 0-11.002 11.004l19.438 19.436-19.438 19.437a7.78 7.78 0 0 0 0 11.005c1.52 1.517 3.51 2.276 5.501 2.276s3.981-.76 5.501-2.276l22.507-22.51.021.021z"/>
  </symbol>
  <symbol id="sp-arrow-up" viewBox="0 0 29 14">
    <path d="M14.5 0 0 11l3.04 3L14.5 5l11.54 9L29 11z"/>
  </symbol>
  <symbol id="sp-basket-theme-01" viewBox="0 0 28 32">
    <path d="M20.92 6c-.486-3.391-3.394-6-6.92-6S7.566 2.609 7.08 6H0v26h28V6zM14 2a5.01 5.01 0 0 1 4.899 4H9.101A5.01 5.01 0 0 1 14 2m12 28H2V8h24z"/>
  </symbol>
  <symbol id="sp-basket-theme-02" viewBox="0 0 22 20">
    <circle cx="17" cy="18" r="2"/>
    <circle cx="8" cy="18" r="2"/>
    <path d="M0 2h3.5L6 14h13l3-10H10l1 2h8.3l-1.6 6H7.5L5 0H0z"/>
  </symbol>
  <symbol id="sp-error-72" viewBox="0 0 72 72">
    <path fill-rule="evenodd" clip-rule="evenodd" d="M10 6H6v60h4zm0-2H4v64h48v-.051l.06.051.036-.128A13.9 13.9 0 0 1 46.785 66H12V6h38v34.58a14 14 0 0 1 2.06-.447v-30.3l13.599 3.644-7.784 27.066q.973.28 1.882.692l7.834-27.24.553-1.923-1.933-.518L52.06 7.762 52 7.746V4zm32.51 58c-.44-.63-.83-1.3-1.163-2H16v2zm-1.93-4a14 14 0 0 1-.438-2H16v2zM46 26v16.51a14 14 0 0 0-2 1.692V26H18v23h22.92a14 14 0 0 0-.598 2H16V24h30zm-2-13H18v5h26zm-26-2h-2v9h30v-9zm48 43c0 6.627-5.373 12-12 12s-12-5.373-12-12 5.373-12 12-12 12 5.373 12 12m-10.586 0 4.293 4.293-1.414 1.414L54 55.414l-4.293 4.293-1.414-1.414L52.586 54l-4.293-4.293 1.414-1.414L54 52.586l4.293-4.293 1.414 1.414z"/>
  </symbol>
  <symbol id="sp-error-video" viewBox="0 0 62 58">
    <path d="M62 29s.002-10.277-1.3-15.17c-.689-2.718-2.798-4.812-5.44-5.55-1.403-.37-4.021-.633-7.03-.82L36.6 26.25 41 29l-10 6.2-9.65 15.66c5.173.141 9.65.14 9.65.14s19.397 0 24.26-1.359c2.642-.699 4.742-2.833 5.44-5.511C62.002 39.131 62 29 62 29M46 0l-4.5 7.17C35.933 7.002 31 7 31 7S11.642 7 6.74 8.32c-2.642.738-4.752 2.87-5.48 5.55C-.004 18.724 0 29 0 29s-.004 10.188 1.26 15.12c.728 2.68 2.876 4.842 5.48 5.58 1.542.406 4.541.71 7.92.9L11 56.5l2.5 1.5 35-56.5zM25 34V19l6.65 4.15z"/>
  </symbol>
  <symbol id="sp-cross-20" viewBox="0 0 20 20">
    <path d="M20 1.5 18.5 0 10 8.5 1.5 0 0 1.5 8.5 10 0 18.5 1.5 20l8.5-8.5 8.5 8.5 1.5-1.5-8.5-8.5z"/>
  </symbol>
  <symbol id="sp-check" viewBox="0 0 12 10">
    <path d="M12 1.8 10.3 0 4.1 6.5 1.7 4 0 5.8 4.1 10z"/>
  </symbol>
  <symbol id="sp-close-18" viewBox="0 0 24 24">
    <path fill-rule="evenodd" clip-rule="evenodd" d="M10.6 12 3 4.4 4.4 3l7.6 7.6L19.6 3 21 4.4 13.4 12l7.6 7.6-1.4 1.4-7.6-7.6L4.4 21 3 19.6z"/>
  </symbol>
</svg>